<svg xmlns="http://www.w3.org/2000/svg">
  <defs>
     <symbol id="icon-menu" viewBox="0 0 64 80">
        <path d="M51.45,2.023a.5.5,0,0,0-.138-.368A.494.494,0,0,0,50.95,1.5H6.923a.5.5,0,0,0-.5.46L2.912,45.5H49.346ZM22,7.5H36a.5.5,0,0,1,0,1H22a.5.5,0,0,1,0-1ZM35.475,24.158l-1,3A.5.5,0,0,1,34,27.5h-.6L30.489,41.1a.5.5,0,0,1-.489.4H19a.5.5,0,0,1-.5-.57l.633-4.43H19v-1h.281l1.142-8H20a.5.5,0,0,1-.475-.658l1-3A.5.5,0,0,1,21,23.5h.732l1.852-2.777A.5.5,0,0,1,24,20.5h9a.5.5,0,0,1,.475.342l.886,2.658H35a.5.5,0,0,1,.475.658ZM44,16.5H12a.5.5,0,0,1,0-1H44a.5.5,0,0,1,0,1Zm0-4H12a.5.5,0,0,1,0-1H44a.5.5,0,0,1,0,1Z"/>
        <polygon points="20.862 31.5 31.525 31.5 32.382 27.5 21.434 27.5 20.862 31.5"/>
        <polygon points="49.298 46.5 2.832 46.5 2.59 49.5 49.153 49.5 49.298 46.5"/>
        <path d="M2.084,62.5h3.2a.5.5,0,0,0,.474-.342l2.553-6.653A1.488,1.488,0,0,1,9.721,54.5H42.1A1.5,1.5,0,0,1,43.6,55.83l.8,6.216a.5.5,0,0,0,.5.454h3.151a.5.5,0,0,0,.5-.476L49.1,50.5H2.509L1.585,61.96a.5.5,0,0,0,.5.54Z"/>
        <polygon points="32.64 21.5 24.268 21.5 22.935 23.5 33.307 23.5 32.64 21.5"/>
        <path d="M62.238,62.33a.488.488,0,0,0,.12-.393l-7.738-60a.5.5,0,0,0-.495-.432H52.363a1.487,1.487,0,0,1,.085.572L49.96,53.5H53.4a2.486,2.486,0,0,1,2.44,1.958l1.478,6.65a.5.5,0,0,0,.488.392h4.06A.5.5,0,0,0,62.238,62.33Z"/>
        <polygon points="19.576 40.5 29.596 40.5 30.453 36.5 20.148 36.5 19.576 40.5"/>
        <polygon points="20.693 26.5 33.64 26.5 34.307 24.5 21.36 24.5 20.693 26.5"/>
        <polygon points="20.291 35.5 30.667 35.5 31.31 32.5 20.719 32.5 20.291 35.5"/>
     </symbol>

     <symbol id="icon-food" viewBox="0 0 64 80">
        <g>
            <path d="M8.9,55.13L2.29,56C2.13,55.98,2,55.83,2,55.66c0-0.1,0.05-0.2,0.13-0.26c0.04-0.03,0.08-0.07,0.11-0.1l6-6.1L8.9,55.13z"/>
            <polygon points="16.91,54.13 10.88,54.88 10.01,46.88 16.11,46.12  "/>
            <path d="M43.316,25.243c0.418,0.277,0.642,0.594,0.705,0.994c0.148,0.949-0.621,2.16-0.928,2.544   c-0.348,0.429-0.281,1.059,0.148,1.406c0.185,0.149,0.407,0.223,0.628,0.223c0.292,0,0.58-0.127,0.778-0.371   c0.17-0.21,1.654-2.112,1.351-4.1c-0.146-0.957-0.69-1.773-1.573-2.361c-0.496-0.331-0.768-0.723-0.857-1.232   c-0.214-1.231,0.724-2.826,1.104-3.337c0.33-0.442,0.24-1.067-0.201-1.398c-0.443-0.331-1.069-0.241-1.4,0.2   c-0.192,0.256-1.868,2.571-1.474,4.869C41.775,23.726,42.37,24.611,43.316,25.243z"/>
            <path d="M49.993,12.428c0.839,1.067,1.969,3.413,0.112,7.125c-3.356,6.713,0.188,9.178,0.34,9.279   c0.168,0.112,0.357,0.166,0.544,0.166c0.315,0,0.624-0.152,0.819-0.432c0.312-0.444,0.202-1.063-0.236-1.386   c-0.091-0.067-2.196-1.697,0.322-6.733c2.349-4.698,0.803-7.815-0.327-9.253c-0.711-0.911-1.181-1.812-1.397-2.677   c-0.587-2.351-0.158-3.905,1.277-4.623c0.494-0.247,0.694-0.848,0.447-1.342c-0.247-0.493-0.847-0.693-1.342-0.447   c-2.32,1.16-3.145,3.609-2.323,6.896C48.514,10.141,49.107,11.292,49.993,12.428z"/>
            <path d="M25.86,44.5c-0.36-0.06-0.71-0.11-1.06-0.15c-1.55-0.17-3.12-0.12-4.66,0.15l-2.11,0.37L18.91,54h8.18L28,44.87L25.86,44.5   z M29.89,46.12l-0.8,8.01l6.03,0.75l0.87-8L29.89,46.12z M43.87,55.4c-0.04-0.03-0.08-0.06-0.11-0.1l-0.59-0.6l-5.41-5.5   l-0.66,5.93l0.03,0.01L43.71,56c0.16-0.02,0.29-0.17,0.29-0.33C44,55.57,43.95,55.46,43.87,55.4z M25.86,44.5   c-0.36-0.06-0.71-0.11-1.06-0.15c-1.55-0.17-3.12-0.12-4.66,0.15l-2.11,0.37L18.91,54h8.18L28,44.87L25.86,44.5z M29.89,46.12   l-0.8,8.01l6.03,0.75l0.87-8L29.89,46.12z M43.87,55.4c-0.04-0.03-0.08-0.06-0.11-0.1l-0.59-0.6l-5.41-5.5l-0.66,5.93l0.03,0.01   L43.71,56c0.16-0.02,0.29-0.17,0.29-0.33C44,55.57,43.95,55.46,43.87,55.4z M63,58h-3v-3c0-0.66-0.32-1.24-0.81-1.6   c0.8-3.09,1.96-6.9,2.85-8.58c1.58-2.97,1.86-6.11,1.92-8.77c0.03-0.68,0.03-1.36,0.03-2.03c0.01-0.54-0.19-1.04-0.57-1.42   c-0.38-0.39-0.89-0.6-1.43-0.6H34c-0.54,0-1.05,0.21-1.43,0.6c-0.38,0.38-0.58,0.88-0.57,1.4c0,0.34,0,0.69,0.01,1h-2.32   c-1.51,0-2.95,0.64-3.96,1.76c-1.01,1.11-1.5,2.61-1.35,4.11c0.05,0.49,0.13,0.98,0.24,1.46c0.13,0.01,0.27,0.02,0.4,0.04   c0.39,0.04,0.8,0.09,1.19,0.17l2.1,0.35c0.35,0.05,0.68,0.2,0.94,0.43c-0.48-0.87-0.8-1.84-0.89-2.85   c-0.05-0.51,0.19-0.87,0.34-1.03c0.15-0.16,0.47-0.44,0.99-0.44h2.54c0.01,0.04,0.01,0.08,0.02,0.12c0.25,2.07,0.76,3.87,1.59,5.48   l2.35,0.29c-0.18-0.41-0.33-0.73-0.48-1.01c-0.76-1.45-1.25-3.08-1.48-5.01c-0.11-0.84-0.18-1.75-0.21-2.87h27.94   c-0.06,2.45-0.31,5.29-1.68,7.88c-1.19,2.22-2.52,7.06-3.06,9.12H44.3l0.84,0.85c0.54,0.44,0.86,1.12,0.86,1.82   c0,1.29-1.05,2.33-2.33,2.33c-0.04,0-0.09,0-0.13-0.01L37,57.14V58H1c-0.38,0-0.73,0.21-0.89,0.55c-0.17,0.34-0.14,0.75,0.09,1.05   l1.2,1.6C2.71,62.95,4.81,64,7,64h50.88c2.88,0,5.39-1.96,6.09-4.76c0.07-0.3,0.01-0.61-0.18-0.86C63.6,58.14,63.31,58,63,58z    M40,62H7c-1.57,0-3.06-0.75-4-2h41C43.06,61.25,41.57,62,40,62z M57.88,62h-13c0.26-0.25,0.5-0.51,0.72-0.8l0.9-1.2h15   C60.73,61.22,59.38,62,57.88,62z M43.87,55.4c-0.04-0.03-0.08-0.06-0.11-0.1l-0.59-0.6l-5.41-5.5l-0.66,5.93l0.03,0.01L43.71,56   c0.16-0.02,0.29-0.17,0.29-0.33C44,55.57,43.95,55.46,43.87,55.4z M29.89,46.12l-0.8,8.01l6.03,0.75l0.87-8L29.89,46.12z    M25.86,44.5c-0.36-0.06-0.71-0.11-1.06-0.15c-1.55-0.17-3.12-0.12-4.66,0.15l-2.11,0.37L18.91,54h8.18L28,44.87L25.86,44.5z    M43.87,55.4c-0.04-0.03-0.08-0.06-0.11-0.1l-0.59-0.6l-5.41-5.5l-0.66,5.93l0.03,0.01L43.71,56c0.16-0.02,0.29-0.17,0.29-0.33   C44,55.57,43.95,55.46,43.87,55.4z M29.89,46.12l-0.8,8.01l6.03,0.75l0.87-8L29.89,46.12z M25.86,44.5   c-0.36-0.06-0.71-0.11-1.06-0.15c-1.55-0.17-3.12-0.12-4.66,0.15l-2.11,0.37L18.91,54h8.18L28,44.87L25.86,44.5z M29.89,46.12   l-0.8,8.01l6.03,0.75l0.87-8L29.89,46.12z M25.86,44.5c-0.36-0.06-0.71-0.11-1.06-0.15c-1.55-0.17-3.12-0.12-4.66,0.15l-2.11,0.37   L18.91,54h8.18L28,44.87L25.86,44.5z"/>
        </g>
     </symbol>

     <symbol id="icon-coffee" viewBox="0 0 64 80">
        <path d="M51,10h-1.7L43,1l-5.75,3.83C37.09,4.94,36.89,5,36.7,5H16l-0.833,5H13c-1.103,0-2,0.897-2,2v4c0,1.103,0.897,2,2,2h1.069  l2.804,39.207c0.084,1.267,0.964,2.3,2.127,2.653V63c0,0.552,0.448,1,1,1h24c0.552,0,1-0.448,1-1v-3.14  c1.163-0.353,2.043-1.385,2.127-2.648L49.931,18H51c1.103,0,2-0.897,2-2v-4C53,10.897,52.103,10,51,10z M19,24h28.497l-0.143,2  H16.646l-0.572-8h31.852l-0.286,4H19c-0.552,0-1,0.448-1,1S18.448,24,19,24z M31.823,37.54c0.218,0.268,0.389,0.568,0.515,0.904  c0.01,0.026,0.012,0.05,0.022,0.076c-0.773-0.859-1.603-1.519-2.342-1.519c0,0,0,0-0.001,0c-0.233-0.03-0.78-0.386-1.368-0.863  c0.467-0.103,1.017-0.062,1.586,0.175c0,0,0,0,0,0c0.396,0.165,0.764,0.399,1.107,0.711C31.527,37.185,31.676,37.342,31.823,37.54z   M31.681,34.82c0.108-0.537,0.361-1.076,0.743-1.558c0.596-0.753,1.397-1.227,2.141-1.318c-0.552,0.792-1.075,1.743-1.066,2.512  c-0.037,0.086-0.21,0.415-0.854,1.053C32.346,35.241,32.02,35.018,31.681,34.82z M29.924,38.998c0.318,0.143,1.031,0.909,1.704,1.8  c-0.211,0.083-0.422,0.119-0.597,0.128c-0.779,0.039-1.661-0.31-2.367-0.945c-0.711-0.63-1.132-1.471-1.186-2.212  C28.235,38.375,29.155,38.961,29.924,38.998z M35.577,35.738c-0.42,0.529-0.936,0.907-1.467,1.128  c1.253-1.261,1.419-1.971,1.389-2.44c0.014-0.236,0.339-0.813,0.782-1.436C36.509,33.778,36.27,34.853,35.577,35.738z M43,62H21v-2  h22V62z M45.132,57.074C45.098,57.593,44.662,58,44.14,58H44H20h-0.14c-0.521,0-0.958-0.407-0.992-0.931L18.434,51h27.133  L45.132,57.074z M45.71,49H18.291l-0.143-2h27.705L45.71,49z"/>
     </symbol>

     <symbol id="icon-wifi" viewBox="0 0 64 80">
        <path d="M63.85,37.03C63.26,33.02,59.73,30,55.64,30H12c-0.55,0-1,0.45-1,1v10c0,6.49,3.66,12.14,9.02,15H7c-0.55,0-1,0.45-1,1v0.28  c0,2.18,0.95,4.21,2.55,5.44c1.1,0.84,2.37,1.28,3.67,1.28h39.56c1.3,0,2.57-0.44,3.68-1.29c1.59-1.22,2.54-3.25,2.54-5.43V57  c0-0.55-0.45-1-1-1H44c0.37-0.2,0.73-0.41,1.09-0.63l7.24-1.73c2.47-0.59,4.58-1.61,6.27-3.03C62.57,47.27,64.58,42.08,63.85,37.03z   M53,41v-5h2.64c1.11,0,2.06,0.81,2.22,1.88c0.6,4.15-1.84,8.22-5.76,9.67l-0.47,0.14C52.53,45.58,53,43.31,53,41z M55.95,58  c-0.17,1.28-0.78,2.41-1.7,3.12C53.49,61.7,52.64,62,51.78,62H12.22c-0.86,0-1.71-0.3-2.46-0.87C8.83,60.41,8.22,59.28,8.05,58  H55.95z M44.17,53.59C41.72,55.17,38.9,56,36,56h-8c-8.27,0-15-6.73-15-15v-9h35v8.71c0,0.38-0.02,0.77-0.06,1.17  c-0.01,0.13-0.02,0.26-0.04,0.4c-0.1,0.75-0.26,1.48-0.49,2.18C45.82,49.45,41.12,53,35.71,53h-7.42c-5.42,0-10.12-3.55-11.7-8.55  c-0.11-0.35-0.21-0.71-0.29-1.07c-0.08-0.36-0.15-0.72-0.2-1.1c-0.02-0.13-0.03-0.27-0.04-0.4c-0.04-0.4-0.06-0.79-0.06-1.17V34  c0-0.55-0.45-1-1-1s-1,0.45-1,1v6.71c0,0.6,0.04,1.21,0.12,1.83C15.02,49.64,21.11,55,28.29,55h7.42c7.18,0,13.27-5.36,14.17-12.46  c0.08-0.62,0.12-1.23,0.12-1.83V32h1v9c0,2.75-0.75,5.45-2.17,7.8C47.65,50.71,46.04,52.37,44.17,53.59z M57.31,49.08  c-1.44,1.22-3.28,2.1-5.44,2.62l-3.38,0.8c0.67-0.72,1.27-1.5,1.81-2.32l2.44-0.73c4.85-1.8,7.84-6.78,7.1-11.86  c-0.3-2.05-2.11-3.59-4.2-3.59H53v-2h2.64c3.1,0,5.78,2.29,6.23,5.32C62.5,41.68,60.76,46.18,57.31,49.08z"/>
        <g>
            <circle cx="32" cy="19" r="3"/>
            <path d="M38.999,14.286c0.304,0,0.604-0.138,0.801-0.399c0.331-0.441,0.242-1.068-0.199-1.4C37.467,10.883,34.768,10,32,10   s-5.467,0.883-7.601,2.486c-0.441,0.332-0.53,0.959-0.199,1.4c0.333,0.442,0.96,0.531,1.4,0.199C27.391,12.74,29.663,12,32,12   s4.609,0.74,6.399,2.086C38.579,14.221,38.79,14.286,38.999,14.286z"/>
            <path d="M41.999,10.512c0.288,0,0.573-0.123,0.771-0.362c0.353-0.425,0.294-1.056-0.132-1.407C39.726,6.329,35.948,5,32,5   s-7.726,1.329-10.638,3.742c-0.426,0.352-0.484,0.982-0.132,1.407c0.351,0.425,0.98,0.486,1.407,0.132C25.155,8.196,28.567,7,32,7   s6.845,1.196,9.362,3.281C41.549,10.437,41.774,10.512,41.999,10.512z"/>
            <path d="M17.53,7c0.216,0,0.434-0.069,0.617-0.214C21.96,3.789,27.139,2,32,2c4.862,0,10.04,1.789,13.852,4.786   c0.437,0.344,1.063,0.266,1.404-0.168c0.342-0.435,0.267-1.062-0.168-1.404C42.936,1.949,37.296,0,32,0   c-5.295,0-10.936,1.949-15.089,5.214c-0.434,0.341-0.51,0.97-0.168,1.404C16.94,6.869,17.233,7,17.53,7z"/>
            <path d="M63.85,37.03C63.26,33.02,59.73,30,55.64,30H12c-0.55,0-1,0.45-1,1v10c0,6.49,3.66,12.14,9.02,15H7c-0.55,0-1,0.45-1,1   v0.28c0,2.18,0.95,4.21,2.55,5.44c1.1,0.84,2.37,1.28,3.67,1.28h39.56c1.3,0,2.57-0.44,3.68-1.29c1.59-1.22,2.54-3.25,2.54-5.43V57   c0-0.55-0.45-1-1-1H44c0.37-0.2,0.73-0.41,1.09-0.63l7.24-1.73c2.47-0.59,4.58-1.61,6.27-3.03C62.57,47.27,64.58,42.08,63.85,37.03   z M53,41v-5h2.64c1.11,0,2.06,0.81,2.22,1.88c0.6,4.15-1.84,8.22-5.76,9.67l-0.47,0.14C52.53,45.58,53,43.31,53,41z M55.95,58   c-0.17,1.28-0.78,2.41-1.7,3.12C53.49,61.7,52.64,62,51.78,62H12.22c-0.86,0-1.71-0.3-2.46-0.87C8.83,60.41,8.22,59.28,8.05,58   H55.95z M44.17,53.59C41.72,55.17,38.9,56,36,56h-8c-8.27,0-15-6.73-15-15v-9h35v3.69C44.62,35.28,38.72,35,32,35   s-12.62,0.28-16,0.69V34c0-0.55-0.45-1-1-1s-1,0.45-1,1v6.71c0,0.6,0.04,1.21,0.12,1.83C15.02,49.64,21.11,55,28.29,55h7.42   c7.18,0,13.27-5.36,14.17-12.46c0.08-0.62,0.12-1.23,0.12-1.83V32h1v9c0,2.75-0.75,5.45-2.17,7.8   C47.65,50.71,46.04,52.37,44.17,53.59z M16.59,44.45c-0.11-0.35-0.21-0.71-0.29-1.07c-0.08-0.36-0.15-0.72-0.2-1.1   c-0.02-0.13-0.03-0.27-0.04-0.4c0.59,0.41,1.41,0.82,2.39,1.18c0.52,0.19,0.78,0.77,0.59,1.29C18.89,44.75,18.51,45,18.1,45   c-0.11,0-0.23-0.02-0.34-0.06C17.34,44.78,16.95,44.62,16.59,44.45z M32,47c-3.81,0-7.47-0.35-10.57-1.02   c-0.54-0.12-0.89-0.65-0.77-1.19c0.11-0.54,0.64-0.89,1.19-0.77C24.82,44.66,28.33,45,32,45c8.03,0,13.68-1.54,15.94-3.12   c-0.01,0.13-0.02,0.26-0.04,0.4c-0.1,0.75-0.26,1.48-0.49,2.18C43.97,46.03,38.29,47,32,47z M32,39c-6.51,0-12.45-0.26-16-0.68   V36.3c3.4,0.43,9.5,0.7,16,0.7s12.6-0.27,16-0.7v2.02C44.45,38.74,38.51,39,32,39z M57.31,49.08c-1.44,1.22-3.28,2.1-5.44,2.62   l-3.38,0.8c0.67-0.72,1.27-1.5,1.81-2.32l2.44-0.73c4.85-1.8,7.84-6.78,7.1-11.86c-0.3-2.05-2.11-3.59-4.2-3.59H53v-2h2.64   c3.1,0,5.78,2.29,6.23,5.32C62.5,41.68,60.76,46.18,57.31,49.08z"/>
        </g>
     </symbol>

     <symbol id="icon-tea" viewBox="0 0 64 80">
        <path d="M50.74,18.604l-0.599-2.996C49.96,14.676,49.135,14,48.18,14H40V2c0-0.55-0.45-1-1-1h-2c-0.55,0-1,0.45-1,1v12H15.82  c-0.955,0-1.78,0.676-1.961,1.604l-0.601,3.006c-0.115,0.592,0.039,1.199,0.423,1.664c0.347,0.421,0.847,0.667,1.384,0.709  l2.806,40.224C17.978,62.773,19.294,64,20.87,64h22.26c1.576,0,2.893-1.227,2.998-2.79l2.806-40.227  c0.537-0.042,1.037-0.288,1.384-0.709C50.702,19.809,50.856,19.202,50.74,18.604z M44.132,61.073C44.097,61.602,43.666,62,43.13,62  H20.87c-0.536,0-0.967-0.398-1.002-0.93L17.073,21h1l0.905,12.075C19.017,33.6,19.455,34,19.974,34c0.025,0,0.05-0.001,0.075-0.003  c0,0,0,0,0.001,0l0.15,2.006c0,0,0,0-0.001,0c-0.551,0.041-0.963,0.521-0.922,1.072l1.586,21.152C20.983,59.782,22.3,61,23.86,61  H40.14c1.561,0,2.877-1.218,2.997-2.775L45.928,21h1L44.132,61.073z M39.45,41.5l-4.95,4.95l-4.95-4.95l4.95-4.95L39.45,41.5z   M35.31,33.02l1.67-4.71l4.71,1.67l-1.67,4.71L35.31,33.02z M38.84,51.34l-2.18,4.5l-4.5-2.18l2.18-4.5L38.84,51.34z M28.21,37.4  l-5.61-4.19l4.19-5.61l5.61,4.19L28.21,37.4z M29.25,49.72l-4.97,0.53l-0.53-4.97l4.97-0.53L29.25,49.72z M40,19  c-0.553,0-1,0.448-1,1s0.447,1,1,1h3.922l-0.153,2.041c-1.752-0.077-3.558,0.18-5.288,0.798c-2.485,0.894-6.061,1.688-8.975,0.377  c-2.442-1.088-5.547-1.251-9.226-0.507L20.078,21H36c0.553,0,1-0.448,1-1s-0.447-1-1-1l-20.779-0.004L15.82,16l32.359-0.004  L48.78,19H40z"/>
     </symbol>

     <symbol id="icon-home" viewBox="0 0 64 80">
        <path d="M63,0H1C0.448,0,0,0.448,0,1v3c0,0.552,0.448,1,1,1h1v2.924L0.012,20.848C0.004,20.898,0,20.949,0,21v4c0,0.552,0.448,1,1,1  v37c0,0.552,0.448,1,1,1h60c0.552,0,1-0.448,1-1V26c0.552,0,1-0.448,1-1v-4c0-0.051-0.004-0.102-0.012-0.152L62,7.924V5h1  c0.552,0,1-0.448,1-1V1C64,0.448,63.552,0,63,0z M35.142,9l0.792,5.152C36.011,14.646,36.437,15,36.921,15  c0.051,0,0.102-0.004,0.153-0.012c0.546-0.084,0.92-0.594,0.836-1.14L37.165,9h2.977l1.692,11h-2.977l-0.485-3.152  c-0.084-0.546-0.599-0.922-1.14-0.836c-0.546,0.084-0.92,0.594-0.836,1.14L36.834,20H33V9H35.142z M60.142,9l1.692,11h-2.977  L57.165,9H60.142z M59,24v-2h3v2H59z M58,49v9h-6v-9H58z M58,60v2h-6v-2H58z M50,59v3h-2v-7h2V59z M42,51h4v11h-4V51z M44,49  c-1.103,0-2-0.897-2-2c0-0.574,0.239-1.112,0.671-1.489C43.035,45.182,43.507,45,44,45c1.103,0,2,0.897,2,2S45.103,49,44,49z M33,24  v-2h4v2H33z M17,24v-2h8v2H17z M2,24v-2h3v2H2z M7,22h3v2H7V22z M12,22h3v2h-3V22z M27,22h4v2h-4V22z M39,22h3v2h-3V22z M44,22h3v2  h-3V22z M49,22h3v2h-3V22z M54,22h3v2h-3V22z M55.142,9l1.692,11h-2.977L52.165,9H55.142z M50.142,9l1.692,11h-2.977L47.165,9  H50.142z M45.142,9l1.692,11h-2.977L42.165,9H45.142z M31,20h-3.834l1.692-11H31V20z M25.142,20h-2.977l1.692-11h2.977L25.142,20z   M20.142,20h-2.977l1.692-11h2.977L20.142,20z M15.142,20h-2.977l1.692-11h2.977L15.142,20z M10.142,20H7.166L8.858,9h2.977  L10.142,20z M5.142,20H2.166L3.858,9h2.977L5.142,20z M3,26h18v15c0,0.552,0.448,1,1,1s1-0.448,1-1V26h18v18.388  c-0.63,0.714-1,1.633-1,2.612c0,0.766,0.227,1.475,0.602,2.084C40.249,49.238,40,49.59,40,50v12h-1V36c0-1.103-0.897-2-2-2H27  c-1.103,0-2,0.897-2,2v26h-1V50c0-0.41-0.249-0.762-0.602-0.916C23.773,48.475,24,47.766,24,47c0-1.153-0.49-2.241-1.329-2.971  C21.939,43.365,20.99,43,20,43c-2.206,0-4,1.794-4,4c0,0.732,0.212,1.409,0.556,2H7V29c0-0.552-0.448-1-1-1s-1,0.448-1,1v20  c-0.552,0-1,0.448-1,1v4c0,0.552,0.448,1,1,1h6c0.552,0,1-0.448,1-1s-0.448-1-1-1H6v-2h10v2h-1c-0.552,0-1,0.448-1,1s0.448,1,1,1h1  v7H3V26z M37,62H27V36h10V62z M18,47c0-1.103,0.897-2,2-2c0.493,0,0.965,0.182,1.343,0.524C21.761,45.888,22,46.426,22,47  c0,1.103-0.897,2-2,2S18,48.103,18,47z M18,51h4v11h-4V51z M61,62h-1v-3V48c0-0.552-0.448-1-1-1V29c0-0.552-0.448-1-1-1  s-1,0.448-1,1v18h-6c-0.552,0-1,0.448-1,1v5h-2v-3c0-0.41-0.249-0.762-0.602-0.916C47.773,48.475,48,47.766,48,47  c0-2.206-1.794-4-4-4c-0.343,0-0.675,0.059-1,0.143V26h18V62z M60,7H4V5h56V7z M62,3H2V2h60V3z"/><path d="M29,56h6c0.552,0,1-0.448,1-1V38c0-0.552-0.448-1-1-1h-6c-0.552,0-1,0.448-1,1v17C28,55.552,28.448,56,29,56z M30,39h4v15  h-4V39z"/>
        <path d="M27,33h10c0.552,0,1-0.448,1-1v-4c0-0.552-0.448-1-1-1H27c-0.552,0-1,0.448-1,1v4C26,32.552,26.448,33,27,33z M28,29h8v2h-8  V29z"/>
        <path d="M12.5,44c1.51,0,2.913-0.768,3.732-2h1.688c1.147,0,2.08-0.933,2.08-2.08v-1.84c0-1.147-0.933-2.08-2.08-2.08H16H9  c-0.552,0-1,0.448-1,1v2.5C8,41.981,10.019,44,12.5,44z M18,38.08v1.84c0,0.048-0.032,0.08-0.08,0.08h-0.948  C16.99,39.836,17,39.669,17,39.5V38h0.92C17.968,38,18,38.032,18,38.08z M10,38h5v1.5c0,0.381-0.081,0.732-0.241,1.045  c-0.005,0.011-0.011,0.022-0.016,0.033C14.341,41.442,13.46,42,12.5,42c-1.378,0-2.5-1.122-2.5-2.5V38z"/>
        <path d="M9.796,34.315C10.108,34.82,10.623,35,11,35c0.552,0,1-0.448,1-1c0-0.331-0.16-0.624-0.407-0.806  c0.041-0.153,0.125-0.394,0.302-0.747c0.387-0.774,0.84-1.903,0.309-2.763C11.892,29.18,11.377,29,11,29c-0.552,0-1,0.448-1,1  c0,0.331,0.16,0.624,0.407,0.806c-0.041,0.153-0.125,0.394-0.302,0.747C9.718,32.327,9.265,33.456,9.796,34.315z"/>
        <path d="M12.796,34.315C13.108,34.82,13.623,35,14,35c0.552,0,1-0.448,1-1c0-0.331-0.16-0.624-0.407-0.806  c0.041-0.153,0.125-0.394,0.302-0.747c0.387-0.774,0.84-1.903,0.309-2.763C14.892,29.18,14.377,29,14,29c-0.552,0-1,0.448-1,1  c0,0.331,0.16,0.624,0.407,0.806c-0.041,0.153-0.125,0.394-0.302,0.747C12.718,32.327,12.265,33.456,12.796,34.315z"/>
        <path d="M48.5,44c1.51,0,2.913-0.768,3.732-2h1.688c1.147,0,2.08-0.933,2.08-2.08v-1.84c0-1.147-0.933-2.08-2.08-2.08H52h-7  c-0.552,0-1,0.448-1,1v2.5C44,41.981,46.019,44,48.5,44z M54,38.08v1.84c0,0.048-0.032,0.08-0.08,0.08h-0.948  C52.99,39.836,53,39.669,53,39.5V38h0.92C53.968,38,54,38.032,54,38.08z M46,38h5v1.5c0,0.381-0.081,0.732-0.241,1.045  c-0.005,0.011-0.011,0.022-0.016,0.033C50.341,41.442,49.46,42,48.5,42c-1.378,0-2.5-1.122-2.5-2.5V38z"/>
        <path d="M45.796,34.315C46.108,34.82,46.623,35,47,35c0.552,0,1-0.448,1-1c0-0.331-0.16-0.624-0.407-0.806  c0.041-0.153,0.125-0.394,0.302-0.747c0.387-0.774,0.84-1.903,0.309-2.763C47.892,29.18,47.377,29,47,29c-0.552,0-1,0.448-1,1  c0,0.331,0.16,0.624,0.407,0.806c-0.041,0.153-0.125,0.394-0.302,0.747C45.718,32.327,45.265,33.456,45.796,34.315z"/>
        <path d="M48.796,34.315C49.108,34.82,49.623,35,50,35c0.552,0,1-0.448,1-1c0-0.331-0.16-0.624-0.407-0.806  c0.041-0.153,0.125-0.394,0.302-0.747c0.387-0.774,0.84-1.903,0.309-2.763C50.892,29.18,50.377,29,50,29c-0.552,0-1,0.448-1,1  c0,0.331,0.16,0.624,0.407,0.806c-0.041,0.153-0.125,0.394-0.302,0.747C48.718,32.327,48.265,33.456,48.796,34.315z"/>
        <path d="M54,52h2c0.552,0,1-0.448,1-1s-0.448-1-1-1h-2c-0.552,0-1,0.448-1,1S53.448,52,54,52z"/>
        <path d="M54,55h2c0.552,0,1-0.448,1-1s-0.448-1-1-1h-2c-0.552,0-1,0.448-1,1S53.448,55,54,55z"/>
     </symbol>

     <symbol id="icon-sign" viewBox="0 0 64 80">
        <g>
            <path d="M34,33H24l-1,3h-1v3h0.011c0,0.023-0.01,0.043-0.009,0.065l1,15.002C23.038,54.593,23.474,55,24,55h10   c0.526,0,0.962-0.407,0.998-0.933l1-15.002C36,39.043,35.989,39.023,35.989,39H36v-3h-1L34,33z M33.998,39l-0.333,5h-9.329   l-0.333-5H33.998z M24.935,53l-0.2-3h8.53l-0.2,3H24.935z"/>
            <path d="M57.41,1.59C57.05,1.22,56.55,1,56,1c-1.1,0-2,0.9-2,2v2H8C7.45,5,6.95,5.22,6.59,5.59C6.22,5.95,6,6.45,6,7   c0,1.1,0.9,2,2,2h8v4c0,0.027,0.013,0.05,0.016,0.077C12.614,13.556,10,16.465,10,20v36c0,3.87,3.13,7,7,7h24c3.87,0,7-3.13,7-7V20   c0-3.535-2.614-6.444-6.016-6.923C41.987,13.05,42,13.027,42,13V9h12v52c0,0.55,0.22,1.05,0.59,1.41C54.95,62.78,55.45,63,56,63   c1.1,0,2-0.9,2-2V3C58,2.45,57.78,1.95,57.41,1.59z M40,9v4h-1V9H40z M37,9v4H21V9H37z M19,9v4h-1V9H19z M44,21v34   c0,2.21-1.79,4-4,4H18c-2.21,0-4-1.79-4-4V21c0-2.21,1.79-4,4-4h22C42.21,17,44,18.79,44,21z"/>
            <path d="M25,22h8c0.552,0,1-0.447,1-1s-0.448-1-1-1h-8c-0.552,0-1,0.447-1,1S24.448,22,25,22z"/>
            <path d="M36,24H22c-0.552,0-1,0.447-1,1s0.448,1,1,1h14c0.552,0,1-0.447,1-1S36.552,24,36,24z"/>
            <path d="M36,28H22c-0.552,0-1,0.447-1,1s0.448,1,1,1h14c0.552,0,1-0.447,1-1S36.552,28,36,28z"/>
        </g>
     </symbol>

     <symbol id="icon-main" viewBox="-5.0 -10.0 110.0 135.0">
        <path class="cls-1" d="m45.087,43.741c-1.627,0-2.969-.659-3.625-1.655-.664-1.007-.761-2.518.638-4.04-1.428-1.914-.575-3.323-.232-3.757,1.374-1.737,4.791-1.746,7.312-.019l4.441,3.09c.339.236.54.624.536,1.036-.003.413-.21.798-.553,1.027l-4.836,3.249c-1.276.748-2.548,1.068-3.682,1.068Zm.035-8.271c-.648,0-1.133.166-1.294.369-.09.114.077.634.888,1.371.277.251.427.614.408.988-.019.374-.205.72-.506.942-.833.615-1.273,1.26-1.07,1.568.343.521,2.027.939,3.892-.153l3.253-2.188-2.934-2.041c-.931-.638-1.892-.857-2.637-.857Z"/>
        <path class="cls-1" d="m40.766,22.384c-.354,0-.706-.15-.952-.442-.168-.199-1.632-2-1.39-4.025.125-1.04.68-1.947,1.607-2.624.465-.34.562-.68.594-.905.129-.896-.585-2.069-.846-2.41-.418-.546-.318-1.33.227-1.751.546-.421,1.326-.324,1.749.22.169.217,1.641,2.18,1.347,4.282-.145,1.032-.696,1.926-1.596,2.582-.48.352-.572.681-.599.897-.1.806.576,1.83.82,2.126.439.529.369,1.316-.159,1.758-.234.196-.519.293-.803.293Z"/>
        <path class="cls-1" d="m58.028,22.385c-.355,0-.708-.15-.956-.443-.168-.199-1.632-2-1.39-4.025.125-1.04.68-1.947,1.607-2.624.464-.34.561-.68.594-.905.129-.896-.585-2.069-.846-2.41-.418-.547-.318-1.33.227-1.751.545-.421,1.327-.324,1.749.22.169.217,1.641,2.18,1.347,4.282-.145,1.032-.696,1.925-1.595,2.582-.483.354-.574.685-.601.903-.1.834.62,1.881.818,2.115.445.527.379,1.316-.148,1.762-.235.198-.521.295-.806.295Z"/>
        <path class="cls-1" d="m49.525,20.195c-.354,0-.706-.15-.952-.442-.168-.199-1.632-2.001-1.39-4.027.125-1.039.68-1.946,1.607-2.623.465-.34.562-.679.594-.905.129-.896-.585-2.069-.846-2.41-.418-.547-.318-1.331.227-1.751.545-.421,1.327-.324,1.749.22.169.217,1.642,2.181,1.347,4.283-.145,1.032-.696,1.925-1.596,2.582-.48.351-.572.68-.599.896-.1.807.576,1.831.821,2.127.439.529.369,1.317-.159,1.759-.234.195-.52.292-.803.292Z"/>
        <path class="cls-1" d="m75.435,73.49c.696-.938,1.333-1.915,1.91-2.925,1.334.686,2.792,1.046,4.286,1.046,6.333,0,11.1-10.574,11.1-17.431,0-6.192-4.149-9.89-11.1-9.89-.141,0-.273.014-.41.019v-4.84c0-.015-.008-.027-.008-.041.002-.055.005-.11.005-.163,0-7.344-16.018-11.307-31.088-11.307s-31.088,3.963-31.088,11.307c0,.058.003.118.005.178,0,.009-.005.017-.005.026v16.3c0,6.532,2.042,12.663,5.761,17.687-7.68,1.275-21.051,4.37-21.051,10.454,0,8.015,23.829,12.34,46.25,12.34s46.25-4.325,46.25-12.34c0-5.899-12.194-8.979-20.815-10.42Zm-53.894-29.602c.365.314.774.629,1.247.944,5.295,3.541,15.772,5.74,27.341,5.74s22.046-2.199,27.339-5.738c.475-.316.886-.633,1.253-.949v2.084c0,1.428-1.438,2.687-2.646,3.492-4.822,3.23-15.006,5.318-25.944,5.318s-21.123-2.088-25.957-5.32c-1.201-.801-2.633-2.057-2.633-3.49v-2.081Zm59.68,7.913c.05-.002.099-.011.15-.011,3.613,0,4.32,1.074,4.32,2.93,0,3.403-2.497,9.4-4.32,9.4-.44,0-.855-.094-1.247-.26.715-2.588,1.097-5.3,1.097-8.091v-3.968Zm9.01,2.379c0,5.616-4.166,14.931-8.6,14.931-1.11,0-2.163-.261-3.145-.77.317-.688.617-1.384.88-2.096.638.24,1.311.375,2.005.375,4.243,0,6.82-8.266,6.82-11.9,0-5.43-5.133-5.43-6.82-5.43-.051,0-.1.01-.15.011v-2.492c.136-.007.268-.019.41-.019,3.212,0,8.6.96,8.6,7.39Zm-40.102-23.721c16.848,0,28.588,4.642,28.588,8.807,0,1.433-1.433,2.687-2.637,3.488-4.832,3.23-15.019,5.318-25.952,5.318s-21.12-2.088-25.954-5.32c-1.202-.8-2.634-2.054-2.634-3.486,0-4.165,11.741-8.807,28.588-8.807Zm-28.588,20.136c.365.314.773.629,1.245.944,5.295,3.541,15.773,5.741,27.345,5.741s22.05-2.2,27.333-5.74c.477-.318.889-.636,1.257-.953v5.182c0,8.878-4.094,16.929-11.237,22.091-1.086.793-2.259,1.516-3.509,2.161-.222.12-.454.23-.695.347-4.051,1.985-8.475,2.992-13.15,2.992-4.7,0-9.334-1.075-13.375-3.095l-.583-.302c-1.28-.674-2.496-1.438-3.621-2.28-6.998-5.15-11.011-13.138-11.011-21.914v-5.174Zm41.39,33.771c.005.04.013.083.023.125l.045.361c-.115,1.775-5.153,4.299-12.998,4.299-7.936,0-13-2.582-13-4.36,0-.059.007-.123.014-.182,0-.013.002-.027.003-.043l.174-1.347c4.014,1.73,8.45,2.641,12.939,2.641,4.394,0,8.74-.874,12.67-2.531l.13,1.036Zm-12.93,9.384c-27.106,0-43.75-5.731-43.75-9.84,0-2.494,6.402-6.099,20.402-8.211,1.319,1.454,2.786,2.797,4.41,3.992,1.166.871,2.432,1.666,3.758,2.377l-.289,2.233c-.003.027-.006.062-.008.096-.013.129-.022.268-.022.395,0,4.456,7.986,6.86,15.5,6.86s15.5-2.404,15.5-6.86c0-.052-.003-.104-.01-.154l-.07-.56c-.005-.041-.013-.084-.023-.126l-.217-1.741c1.328-.688,2.599-1.471,3.773-2.328,1.712-1.238,3.254-2.635,4.633-4.153,13.836,2.131,20.164,5.714,20.164,8.18,0,4.108-16.644,9.84-43.75,9.84Z"/>
    </symbol>

  </defs>
</svg>