<svg xmlns="http://www.w3.org/2000/svg" xmlns:xlink="http://www.w3.org/1999/xlink" version="1.1" x="0px" y="0px" viewBox="0 0 64 80" enable-background="new 0 0 64 64" xml:space="preserve">
<path d="M51,10h-1.7L43,1l-5.75,3.83C37.09,4.94,36.89,5,36.7,5H16l-0.833,5H13c-1.103,0-2,0.897-2,2v4c0,1.103,0.897,2,2,2h1.069  l2.804,39.207c0.084,1.267,0.964,2.3,2.127,2.653V63c0,0.552,0.448,1,1,1h24c0.552,0,1-0.448,1-1v-3.14  c1.163-0.353,2.043-1.385,2.127-2.648L49.931,18H51c1.103,0,2-0.897,2-2v-4C53,10.897,52.103,10,51,10z M19,24h28.497l-0.143,2  H16.646l-0.572-8h31.852l-0.286,4H19c-0.552,0-1,0.448-1,1S18.448,24,19,24z M31.823,37.54c0.218,0.268,0.389,0.568,0.515,0.904  c0.01,0.026,0.012,0.05,0.022,0.076c-0.773-0.859-1.603-1.519-2.342-1.519c0,0,0,0-0.001,0c-0.233-0.03-0.78-0.386-1.368-0.863  c0.467-0.103,1.017-0.062,1.586,0.175c0,0,0,0,0,0c0.396,0.165,0.764,0.399,1.107,0.711C31.527,37.185,31.676,37.342,31.823,37.54z   M31.681,34.82c0.108-0.537,0.361-1.076,0.743-1.558c0.596-0.753,1.397-1.227,2.141-1.318c-0.552,0.792-1.075,1.743-1.066,2.512  c-0.037,0.086-0.21,0.415-0.854,1.053C32.346,35.241,32.02,35.018,31.681,34.82z M29.924,38.998c0.318,0.143,1.031,0.909,1.704,1.8  c-0.211,0.083-0.422,0.119-0.597,0.128c-0.779,0.039-1.661-0.31-2.367-0.945c-0.711-0.63-1.132-1.471-1.186-2.212  C28.235,38.375,29.155,38.961,29.924,38.998z M35.577,35.738c-0.42,0.529-0.936,0.907-1.467,1.128  c1.253-1.261,1.419-1.971,1.389-2.44c0.014-0.236,0.339-0.813,0.782-1.436C36.509,33.778,36.27,34.853,35.577,35.738z M43,62H21v-2  h22V62z M45.132,57.074C45.098,57.593,44.662,58,44.14,58H44H20h-0.14c-0.521,0-0.958-0.407-0.992-0.931L18.434,51h27.133  L45.132,57.074z M45.71,49H18.291l-0.143-2h27.705L45.71,49z"/>
<text x="0" y="79" fill="#000000" font-size="5px" font-weight="bold" font-family="'Helvetica Neue', Helvetica, Arial-Unicode, Arial, Sans-serif">Created by ToZIcon</text>
<text x="0" y="84" fill="#000000" font-size="5px" font-weight="bold" font-family="'Helvetica Neue', Helvetica, Arial-Unicode, Arial, Sans-serif">from the Noun Project</text>
</svg>