<svg xmlns="http://www.w3.org/2000/svg" xmlns:xlink="http://www.w3.org/1999/xlink" version="1.1" x="0px" y="0px" viewBox="0 0 64 80" enable-background="new 0 0 64 64" xml:space="preserve">
<g>
<path d="M8.9,55.13L2.29,56C2.13,55.98,2,55.83,2,55.66c0-0.1,0.05-0.2,0.13-0.26c0.04-0.03,0.08-0.07,0.11-0.1l6-6.1L8.9,55.13z"/>
<polygon points="16.91,54.13 10.88,54.88 10.01,46.88 16.11,46.12  "/>
<path d="M43.316,25.243c0.418,0.277,0.642,0.594,0.705,0.994c0.148,0.949-0.621,2.16-0.928,2.544   c-0.348,0.429-0.281,1.059,0.148,1.406c0.185,0.149,0.407,0.223,0.628,0.223c0.292,0,0.58-0.127,0.778-0.371   c0.17-0.21,1.654-2.112,1.351-4.1c-0.146-0.957-0.69-1.773-1.573-2.361c-0.496-0.331-0.768-0.723-0.857-1.232   c-0.214-1.231,0.724-2.826,1.104-3.337c0.33-0.442,0.24-1.067-0.201-1.398c-0.443-0.331-1.069-0.241-1.4,0.2   c-0.192,0.256-1.868,2.571-1.474,4.869C41.775,23.726,42.37,24.611,43.316,25.243z"/>
<path d="M49.993,12.428c0.839,1.067,1.969,3.413,0.112,7.125c-3.356,6.713,0.188,9.178,0.34,9.279   c0.168,0.112,0.357,0.166,0.544,0.166c0.315,0,0.624-0.152,0.819-0.432c0.312-0.444,0.202-1.063-0.236-1.386   c-0.091-0.067-2.196-1.697,0.322-6.733c2.349-4.698,0.803-7.815-0.327-9.253c-0.711-0.911-1.181-1.812-1.397-2.677   c-0.587-2.351-0.158-3.905,1.277-4.623c0.494-0.247,0.694-0.848,0.447-1.342c-0.247-0.493-0.847-0.693-1.342-0.447   c-2.32,1.16-3.145,3.609-2.323,6.896C48.514,10.141,49.107,11.292,49.993,12.428z"/>
<path d="M25.86,44.5c-0.36-0.06-0.71-0.11-1.06-0.15c-1.55-0.17-3.12-0.12-4.66,0.15l-2.11,0.37L18.91,54h8.18L28,44.87L25.86,44.5   z M29.89,46.12l-0.8,8.01l6.03,0.75l0.87-8L29.89,46.12z M43.87,55.4c-0.04-0.03-0.08-0.06-0.11-0.1l-0.59-0.6l-5.41-5.5   l-0.66,5.93l0.03,0.01L43.71,56c0.16-0.02,0.29-0.17,0.29-0.33C44,55.57,43.95,55.46,43.87,55.4z M25.86,44.5   c-0.36-0.06-0.71-0.11-1.06-0.15c-1.55-0.17-3.12-0.12-4.66,0.15l-2.11,0.37L18.91,54h8.18L28,44.87L25.86,44.5z M29.89,46.12   l-0.8,8.01l6.03,0.75l0.87-8L29.89,46.12z M43.87,55.4c-0.04-0.03-0.08-0.06-0.11-0.1l-0.59-0.6l-5.41-5.5l-0.66,5.93l0.03,0.01   L43.71,56c0.16-0.02,0.29-0.17,0.29-0.33C44,55.57,43.95,55.46,43.87,55.4z M63,58h-3v-3c0-0.66-0.32-1.24-0.81-1.6   c0.8-3.09,1.96-6.9,2.85-8.58c1.58-2.97,1.86-6.11,1.92-8.77c0.03-0.68,0.03-1.36,0.03-2.03c0.01-0.54-0.19-1.04-0.57-1.42   c-0.38-0.39-0.89-0.6-1.43-0.6H34c-0.54,0-1.05,0.21-1.43,0.6c-0.38,0.38-0.58,0.88-0.57,1.4c0,0.34,0,0.69,0.01,1h-2.32   c-1.51,0-2.95,0.64-3.96,1.76c-1.01,1.11-1.5,2.61-1.35,4.11c0.05,0.49,0.13,0.98,0.24,1.46c0.13,0.01,0.27,0.02,0.4,0.04   c0.39,0.04,0.8,0.09,1.19,0.17l2.1,0.35c0.35,0.05,0.68,0.2,0.94,0.43c-0.48-0.87-0.8-1.84-0.89-2.85   c-0.05-0.51,0.19-0.87,0.34-1.03c0.15-0.16,0.47-0.44,0.99-0.44h2.54c0.01,0.04,0.01,0.08,0.02,0.12c0.25,2.07,0.76,3.87,1.59,5.48   l2.35,0.29c-0.18-0.41-0.33-0.73-0.48-1.01c-0.76-1.45-1.25-3.08-1.48-5.01c-0.11-0.84-0.18-1.75-0.21-2.87h27.94   c-0.06,2.45-0.31,5.29-1.68,7.88c-1.19,2.22-2.52,7.06-3.06,9.12H44.3l0.84,0.85c0.54,0.44,0.86,1.12,0.86,1.82   c0,1.29-1.05,2.33-2.33,2.33c-0.04,0-0.09,0-0.13-0.01L37,57.14V58H1c-0.38,0-0.73,0.21-0.89,0.55c-0.17,0.34-0.14,0.75,0.09,1.05   l1.2,1.6C2.71,62.95,4.81,64,7,64h50.88c2.88,0,5.39-1.96,6.09-4.76c0.07-0.3,0.01-0.61-0.18-0.86C63.6,58.14,63.31,58,63,58z    M40,62H7c-1.57,0-3.06-0.75-4-2h41C43.06,61.25,41.57,62,40,62z M57.88,62h-13c0.26-0.25,0.5-0.51,0.72-0.8l0.9-1.2h15   C60.73,61.22,59.38,62,57.88,62z M43.87,55.4c-0.04-0.03-0.08-0.06-0.11-0.1l-0.59-0.6l-5.41-5.5l-0.66,5.93l0.03,0.01L43.71,56   c0.16-0.02,0.29-0.17,0.29-0.33C44,55.57,43.95,55.46,43.87,55.4z M29.89,46.12l-0.8,8.01l6.03,0.75l0.87-8L29.89,46.12z    M25.86,44.5c-0.36-0.06-0.71-0.11-1.06-0.15c-1.55-0.17-3.12-0.12-4.66,0.15l-2.11,0.37L18.91,54h8.18L28,44.87L25.86,44.5z    M43.87,55.4c-0.04-0.03-0.08-0.06-0.11-0.1l-0.59-0.6l-5.41-5.5l-0.66,5.93l0.03,0.01L43.71,56c0.16-0.02,0.29-0.17,0.29-0.33   C44,55.57,43.95,55.46,43.87,55.4z M29.89,46.12l-0.8,8.01l6.03,0.75l0.87-8L29.89,46.12z M25.86,44.5   c-0.36-0.06-0.71-0.11-1.06-0.15c-1.55-0.17-3.12-0.12-4.66,0.15l-2.11,0.37L18.91,54h8.18L28,44.87L25.86,44.5z M29.89,46.12   l-0.8,8.01l6.03,0.75l0.87-8L29.89,46.12z M25.86,44.5c-0.36-0.06-0.71-0.11-1.06-0.15c-1.55-0.17-3.12-0.12-4.66,0.15l-2.11,0.37   L18.91,54h8.18L28,44.87L25.86,44.5z"/>
</g>
<text x="0" y="79" fill="#000000" font-size="5px" font-weight="bold" font-family="'Helvetica Neue', Helvetica, Arial-Unicode, Arial, Sans-serif">Created by ToZIcon</text>
<text x="0" y="84" fill="#000000" font-size="5px" font-weight="bold" font-family="'Helvetica Neue', Helvetica, Arial-Unicode, Arial, Sans-serif">from the Noun Project</text>
</svg>