<svg xmlns="http://www.w3.org/2000/svg" xmlns:xlink="http://www.w3.org/1999/xlink" version="1.1" x="0px" y="0px" viewBox="0 0 64 80" enable-background="new 0 0 64 64" xml:space="preserve">
<path d="M63,0H1C0.448,0,0,0.448,0,1v3c0,0.552,0.448,1,1,1h1v2.924L0.012,20.848C0.004,20.898,0,20.949,0,21v4c0,0.552,0.448,1,1,1  v37c0,0.552,0.448,1,1,1h60c0.552,0,1-0.448,1-1V26c0.552,0,1-0.448,1-1v-4c0-0.051-0.004-0.102-0.012-0.152L62,7.924V5h1  c0.552,0,1-0.448,1-1V1C64,0.448,63.552,0,63,0z M35.142,9l0.792,5.152C36.011,14.646,36.437,15,36.921,15  c0.051,0,0.102-0.004,0.153-0.012c0.546-0.084,0.92-0.594,0.836-1.14L37.165,9h2.977l1.692,11h-2.977l-0.485-3.152  c-0.084-0.546-0.599-0.922-1.14-0.836c-0.546,0.084-0.92,0.594-0.836,1.14L36.834,20H33V9H35.142z M60.142,9l1.692,11h-2.977  L57.165,9H60.142z M59,24v-2h3v2H59z M58,49v9h-6v-9H58z M58,60v2h-6v-2H58z M50,59v3h-2v-7h2V59z M42,51h4v11h-4V51z M44,49  c-1.103,0-2-0.897-2-2c0-0.574,0.239-1.112,0.671-1.489C43.035,45.182,43.507,45,44,45c1.103,0,2,0.897,2,2S45.103,49,44,49z M33,24  v-2h4v2H33z M17,24v-2h8v2H17z M2,24v-2h3v2H2z M7,22h3v2H7V22z M12,22h3v2h-3V22z M27,22h4v2h-4V22z M39,22h3v2h-3V22z M44,22h3v2  h-3V22z M49,22h3v2h-3V22z M54,22h3v2h-3V22z M55.142,9l1.692,11h-2.977L52.165,9H55.142z M50.142,9l1.692,11h-2.977L47.165,9  H50.142z M45.142,9l1.692,11h-2.977L42.165,9H45.142z M31,20h-3.834l1.692-11H31V20z M25.142,20h-2.977l1.692-11h2.977L25.142,20z   M20.142,20h-2.977l1.692-11h2.977L20.142,20z M15.142,20h-2.977l1.692-11h2.977L15.142,20z M10.142,20H7.166L8.858,9h2.977  L10.142,20z M5.142,20H2.166L3.858,9h2.977L5.142,20z M3,26h18v15c0,0.552,0.448,1,1,1s1-0.448,1-1V26h18v18.388  c-0.63,0.714-1,1.633-1,2.612c0,0.766,0.227,1.475,0.602,2.084C40.249,49.238,40,49.59,40,50v12h-1V36c0-1.103-0.897-2-2-2H27  c-1.103,0-2,0.897-2,2v26h-1V50c0-0.41-0.249-0.762-0.602-0.916C23.773,48.475,24,47.766,24,47c0-1.153-0.49-2.241-1.329-2.971  C21.939,43.365,20.99,43,20,43c-2.206,0-4,1.794-4,4c0,0.732,0.212,1.409,0.556,2H7V29c0-0.552-0.448-1-1-1s-1,0.448-1,1v20  c-0.552,0-1,0.448-1,1v4c0,0.552,0.448,1,1,1h6c0.552,0,1-0.448,1-1s-0.448-1-1-1H6v-2h10v2h-1c-0.552,0-1,0.448-1,1s0.448,1,1,1h1  v7H3V26z M37,62H27V36h10V62z M18,47c0-1.103,0.897-2,2-2c0.493,0,0.965,0.182,1.343,0.524C21.761,45.888,22,46.426,22,47  c0,1.103-0.897,2-2,2S18,48.103,18,47z M18,51h4v11h-4V51z M61,62h-1v-3V48c0-0.552-0.448-1-1-1V29c0-0.552-0.448-1-1-1  s-1,0.448-1,1v18h-6c-0.552,0-1,0.448-1,1v5h-2v-3c0-0.41-0.249-0.762-0.602-0.916C47.773,48.475,48,47.766,48,47  c0-2.206-1.794-4-4-4c-0.343,0-0.675,0.059-1,0.143V26h18V62z M60,7H4V5h56V7z M62,3H2V2h60V3z"/><path d="M29,56h6c0.552,0,1-0.448,1-1V38c0-0.552-0.448-1-1-1h-6c-0.552,0-1,0.448-1,1v17C28,55.552,28.448,56,29,56z M30,39h4v15  h-4V39z"/>
<path d="M27,33h10c0.552,0,1-0.448,1-1v-4c0-0.552-0.448-1-1-1H27c-0.552,0-1,0.448-1,1v4C26,32.552,26.448,33,27,33z M28,29h8v2h-8  V29z"/>
<path d="M12.5,44c1.51,0,2.913-0.768,3.732-2h1.688c1.147,0,2.08-0.933,2.08-2.08v-1.84c0-1.147-0.933-2.08-2.08-2.08H16H9  c-0.552,0-1,0.448-1,1v2.5C8,41.981,10.019,44,12.5,44z M18,38.08v1.84c0,0.048-0.032,0.08-0.08,0.08h-0.948  C16.99,39.836,17,39.669,17,39.5V38h0.92C17.968,38,18,38.032,18,38.08z M10,38h5v1.5c0,0.381-0.081,0.732-0.241,1.045  c-0.005,0.011-0.011,0.022-0.016,0.033C14.341,41.442,13.46,42,12.5,42c-1.378,0-2.5-1.122-2.5-2.5V38z"/>
<path d="M9.796,34.315C10.108,34.82,10.623,35,11,35c0.552,0,1-0.448,1-1c0-0.331-0.16-0.624-0.407-0.806  c0.041-0.153,0.125-0.394,0.302-0.747c0.387-0.774,0.84-1.903,0.309-2.763C11.892,29.18,11.377,29,11,29c-0.552,0-1,0.448-1,1  c0,0.331,0.16,0.624,0.407,0.806c-0.041,0.153-0.125,0.394-0.302,0.747C9.718,32.327,9.265,33.456,9.796,34.315z"/>
<path d="M12.796,34.315C13.108,34.82,13.623,35,14,35c0.552,0,1-0.448,1-1c0-0.331-0.16-0.624-0.407-0.806  c0.041-0.153,0.125-0.394,0.302-0.747c0.387-0.774,0.84-1.903,0.309-2.763C14.892,29.18,14.377,29,14,29c-0.552,0-1,0.448-1,1  c0,0.331,0.16,0.624,0.407,0.806c-0.041,0.153-0.125,0.394-0.302,0.747C12.718,32.327,12.265,33.456,12.796,34.315z"/>
<path d="M48.5,44c1.51,0,2.913-0.768,3.732-2h1.688c1.147,0,2.08-0.933,2.08-2.08v-1.84c0-1.147-0.933-2.08-2.08-2.08H52h-7  c-0.552,0-1,0.448-1,1v2.5C44,41.981,46.019,44,48.5,44z M54,38.08v1.84c0,0.048-0.032,0.08-0.08,0.08h-0.948  C52.99,39.836,53,39.669,53,39.5V38h0.92C53.968,38,54,38.032,54,38.08z M46,38h5v1.5c0,0.381-0.081,0.732-0.241,1.045  c-0.005,0.011-0.011,0.022-0.016,0.033C50.341,41.442,49.46,42,48.5,42c-1.378,0-2.5-1.122-2.5-2.5V38z"/>
<path d="M45.796,34.315C46.108,34.82,46.623,35,47,35c0.552,0,1-0.448,1-1c0-0.331-0.16-0.624-0.407-0.806  c0.041-0.153,0.125-0.394,0.302-0.747c0.387-0.774,0.84-1.903,0.309-2.763C47.892,29.18,47.377,29,47,29c-0.552,0-1,0.448-1,1  c0,0.331,0.16,0.624,0.407,0.806c-0.041,0.153-0.125,0.394-0.302,0.747C45.718,32.327,45.265,33.456,45.796,34.315z"/>
<path d="M48.796,34.315C49.108,34.82,49.623,35,50,35c0.552,0,1-0.448,1-1c0-0.331-0.16-0.624-0.407-0.806  c0.041-0.153,0.125-0.394,0.302-0.747c0.387-0.774,0.84-1.903,0.309-2.763C50.892,29.18,50.377,29,50,29c-0.552,0-1,0.448-1,1  c0,0.331,0.16,0.624,0.407,0.806c-0.041,0.153-0.125,0.394-0.302,0.747C48.718,32.327,48.265,33.456,48.796,34.315z"/>
<path d="M54,52h2c0.552,0,1-0.448,1-1s-0.448-1-1-1h-2c-0.552,0-1,0.448-1,1S53.448,52,54,52z"/>
<path d="M54,55h2c0.552,0,1-0.448,1-1s-0.448-1-1-1h-2c-0.552,0-1,0.448-1,1S53.448,55,54,55z"/>
<text x="0" y="79" fill="#000000" font-size="5px" font-weight="bold" font-family="'Helvetica Neue', Helvetica, Arial-Unicode, Arial, Sans-serif">Created by ToZIcon</text>
<text x="0" y="84" fill="#000000" font-size="5px" font-weight="bold" font-family="'Helvetica Neue', Helvetica, Arial-Unicode, Arial, Sans-serif">from the Noun Project</text>
</svg>