<svg xmlns="http://www.w3.org/2000/svg" data-name="Layer 19" viewBox="-5.0 -10.0 110.0 135.0" x="0px" y="0px">
<defs>
<style>
      .cls-1 {
        stroke-width: 0px;
      }
</style>
 </defs>
    <path class="cls-1" d="m45.087,43.741c-1.627,0-2.969-.659-3.625-1.655-.664-1.007-.761-2.518.638-4.04-1.428-1.914-.575-3.323-.232-3.757,1.374-1.737,4.791-1.746,7.312-.019l4.441,3.09c.339.236.54.624.536,1.036-.003.413-.21.798-.553,1.027l-4.836,3.249c-1.276.748-2.548,1.068-3.682,1.068Zm.035-8.271c-.648,0-1.133.166-1.294.369-.09.114.077.634.888,1.371.277.251.427.614.408.988-.019.374-.205.72-.506.942-.833.615-1.273,1.26-1.07,1.568.343.521,2.027.939,3.892-.153l3.253-2.188-2.934-2.041c-.931-.638-1.892-.857-2.637-.857Z"/>
    <path class="cls-1" d="m40.766,22.384c-.354,0-.706-.15-.952-.442-.168-.199-1.632-2-1.39-4.025.125-1.04.68-1.947,1.607-2.624.465-.34.562-.68.594-.905.129-.896-.585-2.069-.846-2.41-.418-.546-.318-1.33.227-1.751.546-.421,1.326-.324,1.749.22.169.217,1.641,2.18,1.347,4.282-.145,1.032-.696,1.926-1.596,2.582-.48.352-.572.681-.599.897-.1.806.576,1.83.82,2.126.439.529.369,1.316-.159,1.758-.234.196-.519.293-.803.293Z"/>
    <path class="cls-1" d="m58.028,22.385c-.355,0-.708-.15-.956-.443-.168-.199-1.632-2-1.39-4.025.125-1.04.68-1.947,1.607-2.624.464-.34.561-.68.594-.905.129-.896-.585-2.069-.846-2.41-.418-.547-.318-1.33.227-1.751.545-.421,1.327-.324,1.749.22.169.217,1.641,2.18,1.347,4.282-.145,1.032-.696,1.925-1.595,2.582-.483.354-.574.685-.601.903-.1.834.62,1.881.818,2.115.445.527.379,1.316-.148,1.762-.235.198-.521.295-.806.295Z"/>
    <path class="cls-1" d="m49.525,20.195c-.354,0-.706-.15-.952-.442-.168-.199-1.632-2.001-1.39-4.027.125-1.039.68-1.946,1.607-2.623.465-.34.562-.679.594-.905.129-.896-.585-2.069-.846-2.41-.418-.547-.318-1.331.227-1.751.545-.421,1.327-.324,1.749.22.169.217,1.642,2.181,1.347,4.283-.145,1.032-.696,1.925-1.596,2.582-.48.351-.572.68-.599.896-.1.807.576,1.831.821,2.127.439.529.369,1.317-.159,1.759-.234.195-.52.292-.803.292Z"/>
    <path class="cls-1" d="m75.435,73.49c.696-.938,1.333-1.915,1.91-2.925,1.334.686,2.792,1.046,4.286,1.046,6.333,0,11.1-10.574,11.1-17.431,0-6.192-4.149-9.89-11.1-9.89-.141,0-.273.014-.41.019v-4.84c0-.015-.008-.027-.008-.041.002-.055.005-.11.005-.163,0-7.344-16.018-11.307-31.088-11.307s-31.088,3.963-31.088,11.307c0,.058.003.118.005.178,0,.009-.005.017-.005.026v16.3c0,6.532,2.042,12.663,5.761,17.687-7.68,1.275-21.051,4.37-21.051,10.454,0,8.015,23.829,12.34,46.25,12.34s46.25-4.325,46.25-12.34c0-5.899-12.194-8.979-20.815-10.42Zm-53.894-29.602c.365.314.774.629,1.247.944,5.295,3.541,15.772,5.74,27.341,5.74s22.046-2.199,27.339-5.738c.475-.316.886-.633,1.253-.949v2.084c0,1.428-1.438,2.687-2.646,3.492-4.822,3.23-15.006,5.318-25.944,5.318s-21.123-2.088-25.957-5.32c-1.201-.801-2.633-2.057-2.633-3.49v-2.081Zm59.68,7.913c.05-.002.099-.011.15-.011,3.613,0,4.32,1.074,4.32,2.93,0,3.403-2.497,9.4-4.32,9.4-.44,0-.855-.094-1.247-.26.715-2.588,1.097-5.3,1.097-8.091v-3.968Zm9.01,2.379c0,5.616-4.166,14.931-8.6,14.931-1.11,0-2.163-.261-3.145-.77.317-.688.617-1.384.88-2.096.638.24,1.311.375,2.005.375,4.243,0,6.82-8.266,6.82-11.9,0-5.43-5.133-5.43-6.82-5.43-.051,0-.1.01-.15.011v-2.492c.136-.007.268-.019.41-.019,3.212,0,8.6.96,8.6,7.39Zm-40.102-23.721c16.848,0,28.588,4.642,28.588,8.807,0,1.433-1.433,2.687-2.637,3.488-4.832,3.23-15.019,5.318-25.952,5.318s-21.12-2.088-25.954-5.32c-1.202-.8-2.634-2.054-2.634-3.486,0-4.165,11.741-8.807,28.588-8.807Zm-28.588,20.136c.365.314.773.629,1.245.944,5.295,3.541,15.773,5.741,27.345,5.741s22.05-2.2,27.333-5.74c.477-.318.889-.636,1.257-.953v5.182c0,8.878-4.094,16.929-11.237,22.091-1.086.793-2.259,1.516-3.509,2.161-.222.12-.454.23-.695.347-4.051,1.985-8.475,2.992-13.15,2.992-4.7,0-9.334-1.075-13.375-3.095l-.583-.302c-1.28-.674-2.496-1.438-3.621-2.28-6.998-5.15-11.011-13.138-11.011-21.914v-5.174Zm41.39,33.771c.005.04.013.083.023.125l.045.361c-.115,1.775-5.153,4.299-12.998,4.299-7.936,0-13-2.582-13-4.36,0-.059.007-.123.014-.182,0-.013.002-.027.003-.043l.174-1.347c4.014,1.73,8.45,2.641,12.939,2.641,4.394,0,8.74-.874,12.67-2.531l.13,1.036Zm-12.93,9.384c-27.106,0-43.75-5.731-43.75-9.84,0-2.494,6.402-6.099,20.402-8.211,1.319,1.454,2.786,2.797,4.41,3.992,1.166.871,2.432,1.666,3.758,2.377l-.289,2.233c-.003.027-.006.062-.008.096-.013.129-.022.268-.022.395,0,4.456,7.986,6.86,15.5,6.86s15.5-2.404,15.5-6.86c0-.052-.003-.104-.01-.154l-.07-.56c-.005-.041-.013-.084-.023-.126l-.217-1.741c1.328-.688,2.599-1.471,3.773-2.328,1.712-1.238,3.254-2.635,4.633-4.153,13.836,2.131,20.164,5.714,20.164,8.18,0,4.108-16.644,9.84-43.75,9.84Z"/>
    <text x="0.0" y="117.5" font-size="5.0" font-weight="bold" font-family="Arbeit Regular, Helvetica, Arial-Unicode, Arial, Sans-serif" fill="#000000">Created by Fahrul Oktaviana</text>
    <text x="0.0" y="122.5" font-size="5.0" font-weight="bold" font-family="Arbeit Regular, Helvetica, Arial-Unicode, Arial, Sans-serif" fill="#000000">from Noun Project</text>
</svg>