<svg xmlns="http://www.w3.org/2000/svg" viewBox="0 0 64 80" x="0px" y="0px">
<path d="M51.45,2.023a.5.5,0,0,0-.138-.368A.494.494,0,0,0,50.95,1.5H6.923a.5.5,0,0,0-.5.46L2.912,45.5H49.346ZM22,7.5H36a.5.5,0,0,1,0,1H22a.5.5,0,0,1,0-1ZM35.475,24.158l-1,3A.5.5,0,0,1,34,27.5h-.6L30.489,41.1a.5.5,0,0,1-.489.4H19a.5.5,0,0,1-.5-.57l.633-4.43H19v-1h.281l1.142-8H20a.5.5,0,0,1-.475-.658l1-3A.5.5,0,0,1,21,23.5h.732l1.852-2.777A.5.5,0,0,1,24,20.5h9a.5.5,0,0,1,.475.342l.886,2.658H35a.5.5,0,0,1,.475.658ZM44,16.5H12a.5.5,0,0,1,0-1H44a.5.5,0,0,1,0,1Zm0-4H12a.5.5,0,0,1,0-1H44a.5.5,0,0,1,0,1Z"/>
<polygon points="20.862 31.5 31.525 31.5 32.382 27.5 21.434 27.5 20.862 31.5"/>
<polygon points="49.298 46.5 2.832 46.5 2.59 49.5 49.153 49.5 49.298 46.5"/>
<path d="M2.084,62.5h3.2a.5.5,0,0,0,.474-.342l2.553-6.653A1.488,1.488,0,0,1,9.721,54.5H42.1A1.5,1.5,0,0,1,43.6,55.83l.8,6.216a.5.5,0,0,0,.5.454h3.151a.5.5,0,0,0,.5-.476L49.1,50.5H2.509L1.585,61.96a.5.5,0,0,0,.5.54Z"/>
<polygon points="32.64 21.5 24.268 21.5 22.935 23.5 33.307 23.5 32.64 21.5"/>
<path d="M62.238,62.33a.488.488,0,0,0,.12-.393l-7.738-60a.5.5,0,0,0-.495-.432H52.363a1.487,1.487,0,0,1,.085.572L49.96,53.5H53.4a2.486,2.486,0,0,1,2.44,1.958l1.478,6.65a.5.5,0,0,0,.488.392h4.06A.5.5,0,0,0,62.238,62.33Z"/>
<polygon points="19.576 40.5 29.596 40.5 30.453 36.5 20.148 36.5 19.576 40.5"/>
<polygon points="20.693 26.5 33.64 26.5 34.307 24.5 21.36 24.5 20.693 26.5"/>
<polygon points="20.291 35.5 30.667 35.5 31.31 32.5 20.719 32.5 20.291 35.5"/>
<text x="0" y="79" fill="#000000" font-size="5px" font-weight="bold" font-family="'Helvetica Neue', Helvetica, Arial-Unicode, Arial, Sans-serif">Created by ToZIcon</text>
<text x="0" y="84" fill="#000000" font-size="5px" font-weight="bold" font-family="'Helvetica Neue', Helvetica, Arial-Unicode, Arial, Sans-serif">from the Noun Project</text>
</svg>