<svg xmlns="http://www.w3.org/2000/svg" xmlns:xlink="http://www.w3.org/1999/xlink" version="1.1" x="0px" y="0px" viewBox="0 0 64 80" enable-background="new 0 0 64 64" xml:space="preserve">
<g>
<path d="M34,33H24l-1,3h-1v3h0.011c0,0.023-0.01,0.043-0.009,0.065l1,15.002C23.038,54.593,23.474,55,24,55h10   c0.526,0,0.962-0.407,0.998-0.933l1-15.002C36,39.043,35.989,39.023,35.989,39H36v-3h-1L34,33z M33.998,39l-0.333,5h-9.329   l-0.333-5H33.998z M24.935,53l-0.2-3h8.53l-0.2,3H24.935z"/>
<path d="M57.41,1.59C57.05,1.22,56.55,1,56,1c-1.1,0-2,0.9-2,2v2H8C7.45,5,6.95,5.22,6.59,5.59C6.22,5.95,6,6.45,6,7   c0,1.1,0.9,2,2,2h8v4c0,0.027,0.013,0.05,0.016,0.077C12.614,13.556,10,16.465,10,20v36c0,3.87,3.13,7,7,7h24c3.87,0,7-3.13,7-7V20   c0-3.535-2.614-6.444-6.016-6.923C41.987,13.05,42,13.027,42,13V9h12v52c0,0.55,0.22,1.05,0.59,1.41C54.95,62.78,55.45,63,56,63   c1.1,0,2-0.9,2-2V3C58,2.45,57.78,1.95,57.41,1.59z M40,9v4h-1V9H40z M37,9v4H21V9H37z M19,9v4h-1V9H19z M44,21v34   c0,2.21-1.79,4-4,4H18c-2.21,0-4-1.79-4-4V21c0-2.21,1.79-4,4-4h22C42.21,17,44,18.79,44,21z"/>
<path d="M25,22h8c0.552,0,1-0.447,1-1s-0.448-1-1-1h-8c-0.552,0-1,0.447-1,1S24.448,22,25,22z"/>
<path d="M36,24H22c-0.552,0-1,0.447-1,1s0.448,1,1,1h14c0.552,0,1-0.447,1-1S36.552,24,36,24z"/>
<path d="M36,28H22c-0.552,0-1,0.447-1,1s0.448,1,1,1h14c0.552,0,1-0.447,1-1S36.552,28,36,28z"/>
</g>
<text x="0" y="79" fill="#000000" font-size="5px" font-weight="bold" font-family="'Helvetica Neue', Helvetica, Arial-Unicode, Arial, Sans-serif">Created by ToZIcon</text>
<text x="0" y="84" fill="#000000" font-size="5px" font-weight="bold" font-family="'Helvetica Neue', Helvetica, Arial-Unicode, Arial, Sans-serif">from the Noun Project</text>
</svg>