<svg xmlns="http://www.w3.org/2000/svg" xmlns:xlink="http://www.w3.org/1999/xlink" version="1.1" x="0px" y="0px" viewBox="0 0 64 80" enable-background="new 0 0 64 64" xml:space="preserve">
<path d="M50.74,18.604l-0.599-2.996C49.96,14.676,49.135,14,48.18,14H40V2c0-0.55-0.45-1-1-1h-2c-0.55,0-1,0.45-1,1v12H15.82  c-0.955,0-1.78,0.676-1.961,1.604l-0.601,3.006c-0.115,0.592,0.039,1.199,0.423,1.664c0.347,0.421,0.847,0.667,1.384,0.709  l2.806,40.224C17.978,62.773,19.294,64,20.87,64h22.26c1.576,0,2.893-1.227,2.998-2.79l2.806-40.227  c0.537-0.042,1.037-0.288,1.384-0.709C50.702,19.809,50.856,19.202,50.74,18.604z M44.132,61.073C44.097,61.602,43.666,62,43.13,62  H20.87c-0.536,0-0.967-0.398-1.002-0.93L17.073,21h1l0.905,12.075C19.017,33.6,19.455,34,19.974,34c0.025,0,0.05-0.001,0.075-0.003  c0,0,0,0,0.001,0l0.15,2.006c0,0,0,0-0.001,0c-0.551,0.041-0.963,0.521-0.922,1.072l1.586,21.152C20.983,59.782,22.3,61,23.86,61  H40.14c1.561,0,2.877-1.218,2.997-2.775L45.928,21h1L44.132,61.073z M39.45,41.5l-4.95,4.95l-4.95-4.95l4.95-4.95L39.45,41.5z   M35.31,33.02l1.67-4.71l4.71,1.67l-1.67,4.71L35.31,33.02z M38.84,51.34l-2.18,4.5l-4.5-2.18l2.18-4.5L38.84,51.34z M28.21,37.4  l-5.61-4.19l4.19-5.61l5.61,4.19L28.21,37.4z M29.25,49.72l-4.97,0.53l-0.53-4.97l4.97-0.53L29.25,49.72z M40,19  c-0.553,0-1,0.448-1,1s0.447,1,1,1h3.922l-0.153,2.041c-1.752-0.077-3.558,0.18-5.288,0.798c-2.485,0.894-6.061,1.688-8.975,0.377  c-2.442-1.088-5.547-1.251-9.226-0.507L20.078,21H36c0.553,0,1-0.448,1-1s-0.447-1-1-1l-20.779-0.004L15.82,16l32.359-0.004  L48.78,19H40z"/>
<text x="0" y="79" fill="#000000" font-size="5px" font-weight="bold" font-family="'Helvetica Neue', Helvetica, Arial-Unicode, Arial, Sans-serif">Created by ToZIcon</text>
<text x="0" y="84" fill="#000000" font-size="5px" font-weight="bold" font-family="'Helvetica Neue', Helvetica, Arial-Unicode, Arial, Sans-serif">from the Noun Project</text>
</svg>