<svg xmlns="http://www.w3.org/2000/svg" xmlns:xlink="http://www.w3.org/1999/xlink" version="1.1" x="0px" y="0px" viewBox="0 0 64 80" enable-background="new 0 0 64 64" xml:space="preserve">
<path d="M63.85,37.03C63.26,33.02,59.73,30,55.64,30H12c-0.55,0-1,0.45-1,1v10c0,6.49,3.66,12.14,9.02,15H7c-0.55,0-1,0.45-1,1v0.28  c0,2.18,0.95,4.21,2.55,5.44c1.1,0.84,2.37,1.28,3.67,1.28h39.56c1.3,0,2.57-0.44,3.68-1.29c1.59-1.22,2.54-3.25,2.54-5.43V57  c0-0.55-0.45-1-1-1H44c0.37-0.2,0.73-0.41,1.09-0.63l7.24-1.73c2.47-0.59,4.58-1.61,6.27-3.03C62.57,47.27,64.58,42.08,63.85,37.03z   M53,41v-5h2.64c1.11,0,2.06,0.81,2.22,1.88c0.6,4.15-1.84,8.22-5.76,9.67l-0.47,0.14C52.53,45.58,53,43.31,53,41z M55.95,58  c-0.17,1.28-0.78,2.41-1.7,3.12C53.49,61.7,52.64,62,51.78,62H12.22c-0.86,0-1.71-0.3-2.46-0.87C8.83,60.41,8.22,59.28,8.05,58  H55.95z M44.17,53.59C41.72,55.17,38.9,56,36,56h-8c-8.27,0-15-6.73-15-15v-9h35v8.71c0,0.38-0.02,0.77-0.06,1.17  c-0.01,0.13-0.02,0.26-0.04,0.4c-0.1,0.75-0.26,1.48-0.49,2.18C45.82,49.45,41.12,53,35.71,53h-7.42c-5.42,0-10.12-3.55-11.7-8.55  c-0.11-0.35-0.21-0.71-0.29-1.07c-0.08-0.36-0.15-0.72-0.2-1.1c-0.02-0.13-0.03-0.27-0.04-0.4c-0.04-0.4-0.06-0.79-0.06-1.17V34  c0-0.55-0.45-1-1-1s-1,0.45-1,1v6.71c0,0.6,0.04,1.21,0.12,1.83C15.02,49.64,21.11,55,28.29,55h7.42c7.18,0,13.27-5.36,14.17-12.46  c0.08-0.62,0.12-1.23,0.12-1.83V32h1v9c0,2.75-0.75,5.45-2.17,7.8C47.65,50.71,46.04,52.37,44.17,53.59z M57.31,49.08  c-1.44,1.22-3.28,2.1-5.44,2.62l-3.38,0.8c0.67-0.72,1.27-1.5,1.81-2.32l2.44-0.73c4.85-1.8,7.84-6.78,7.1-11.86  c-0.3-2.05-2.11-3.59-4.2-3.59H53v-2h2.64c3.1,0,5.78,2.29,6.23,5.32C62.5,41.68,60.76,46.18,57.31,49.08z"/>
<g>
<circle cx="32" cy="19" r="3"/>
<path d="M38.999,14.286c0.304,0,0.604-0.138,0.801-0.399c0.331-0.441,0.242-1.068-0.199-1.4C37.467,10.883,34.768,10,32,10   s-5.467,0.883-7.601,2.486c-0.441,0.332-0.53,0.959-0.199,1.4c0.333,0.442,0.96,0.531,1.4,0.199C27.391,12.74,29.663,12,32,12   s4.609,0.74,6.399,2.086C38.579,14.221,38.79,14.286,38.999,14.286z"/>
<path d="M41.999,10.512c0.288,0,0.573-0.123,0.771-0.362c0.353-0.425,0.294-1.056-0.132-1.407C39.726,6.329,35.948,5,32,5   s-7.726,1.329-10.638,3.742c-0.426,0.352-0.484,0.982-0.132,1.407c0.351,0.425,0.98,0.486,1.407,0.132C25.155,8.196,28.567,7,32,7   s6.845,1.196,9.362,3.281C41.549,10.437,41.774,10.512,41.999,10.512z"/>
<path d="M17.53,7c0.216,0,0.434-0.069,0.617-0.214C21.96,3.789,27.139,2,32,2c4.862,0,10.04,1.789,13.852,4.786   c0.437,0.344,1.063,0.266,1.404-0.168c0.342-0.435,0.267-1.062-0.168-1.404C42.936,1.949,37.296,0,32,0   c-5.295,0-10.936,1.949-15.089,5.214c-0.434,0.341-0.51,0.97-0.168,1.404C16.94,6.869,17.233,7,17.53,7z"/>
<path d="M63.85,37.03C63.26,33.02,59.73,30,55.64,30H12c-0.55,0-1,0.45-1,1v10c0,6.49,3.66,12.14,9.02,15H7c-0.55,0-1,0.45-1,1   v0.28c0,2.18,0.95,4.21,2.55,5.44c1.1,0.84,2.37,1.28,3.67,1.28h39.56c1.3,0,2.57-0.44,3.68-1.29c1.59-1.22,2.54-3.25,2.54-5.43V57   c0-0.55-0.45-1-1-1H44c0.37-0.2,0.73-0.41,1.09-0.63l7.24-1.73c2.47-0.59,4.58-1.61,6.27-3.03C62.57,47.27,64.58,42.08,63.85,37.03   z M53,41v-5h2.64c1.11,0,2.06,0.81,2.22,1.88c0.6,4.15-1.84,8.22-5.76,9.67l-0.47,0.14C52.53,45.58,53,43.31,53,41z M55.95,58   c-0.17,1.28-0.78,2.41-1.7,3.12C53.49,61.7,52.64,62,51.78,62H12.22c-0.86,0-1.71-0.3-2.46-0.87C8.83,60.41,8.22,59.28,8.05,58   H55.95z M44.17,53.59C41.72,55.17,38.9,56,36,56h-8c-8.27,0-15-6.73-15-15v-9h35v3.69C44.62,35.28,38.72,35,32,35   s-12.62,0.28-16,0.69V34c0-0.55-0.45-1-1-1s-1,0.45-1,1v6.71c0,0.6,0.04,1.21,0.12,1.83C15.02,49.64,21.11,55,28.29,55h7.42   c7.18,0,13.27-5.36,14.17-12.46c0.08-0.62,0.12-1.23,0.12-1.83V32h1v9c0,2.75-0.75,5.45-2.17,7.8   C47.65,50.71,46.04,52.37,44.17,53.59z M16.59,44.45c-0.11-0.35-0.21-0.71-0.29-1.07c-0.08-0.36-0.15-0.72-0.2-1.1   c-0.02-0.13-0.03-0.27-0.04-0.4c0.59,0.41,1.41,0.82,2.39,1.18c0.52,0.19,0.78,0.77,0.59,1.29C18.89,44.75,18.51,45,18.1,45   c-0.11,0-0.23-0.02-0.34-0.06C17.34,44.78,16.95,44.62,16.59,44.45z M32,47c-3.81,0-7.47-0.35-10.57-1.02   c-0.54-0.12-0.89-0.65-0.77-1.19c0.11-0.54,0.64-0.89,1.19-0.77C24.82,44.66,28.33,45,32,45c8.03,0,13.68-1.54,15.94-3.12   c-0.01,0.13-0.02,0.26-0.04,0.4c-0.1,0.75-0.26,1.48-0.49,2.18C43.97,46.03,38.29,47,32,47z M32,39c-6.51,0-12.45-0.26-16-0.68   V36.3c3.4,0.43,9.5,0.7,16,0.7s12.6-0.27,16-0.7v2.02C44.45,38.74,38.51,39,32,39z M57.31,49.08c-1.44,1.22-3.28,2.1-5.44,2.62   l-3.38,0.8c0.67-0.72,1.27-1.5,1.81-2.32l2.44-0.73c4.85-1.8,7.84-6.78,7.1-11.86c-0.3-2.05-2.11-3.59-4.2-3.59H53v-2h2.64   c3.1,0,5.78,2.29,6.23,5.32C62.5,41.68,60.76,46.18,57.31,49.08z"/>
</g>
<text x="0" y="79" fill="#000000" font-size="5px" font-weight="bold" font-family="'Helvetica Neue', Helvetica, Arial-Unicode, Arial, Sans-serif">Created by ToZIcon</text>
<text x="0" y="84" fill="#000000" font-size="5px" font-weight="bold" font-family="'Helvetica Neue', Helvetica, Arial-Unicode, Arial, Sans-serif">from the Noun Project</text>
</svg>